<svg width="708" height="708" xmlns="http://www.w3.org/2000/svg" data-name="Layer 1">

 <g>
  <title>Layer 1</title>
  <path id="svg_1" fill="#f0f0f0" d="m299.40584,591.62969c-32.5042,-14.96151 -59.18375,-46.5294 -59.94159,-82.30322a164.86264,164.86264 0 0 0 107.87707,34.2689c14.99067,-0.69683 31.59135,-3.03276 43.62924,5.92814c7.49037,5.57553 11.67061,14.72113 13.1732,23.93681c1.50243,9.21616 0.62161,18.63449 -0.26256,27.93038l0.87191,2.16183c-35.56894,3.9012 -72.84307,3.03868 -105.34727,-11.92284z"/>
  <path id="svg_2" fill="#fff" d="m240.2059,509.20952a140.91319,140.91319 0 0 0 64.9739,57.40185a60.68214,60.68214 0 0 0 18.31719,5.096a34.80383,34.80383 0 0 0 18.00608,-3.36127c5.26682,-2.42023 10.37392,-5.50577 16.13734,-6.60357a21.31049,21.31049 0 0 1 16.89548,4.276c5.9908,4.48964 10.01113,10.86414 13.726,17.23448c4.12469,7.07306 8.2969,14.4851 15.263,19.148c0.844,0.565 -0.082,1.84162 -0.92474,1.27749c-12.11987,-8.11271 -15.58511,-23.4813 -25.64539,-33.48206c-4.69431,-4.66654 -10.82338,-7.94667 -17.605,-7.125c-5.93022,0.71848 -11.19943,3.89582 -16.511,6.39244a37.13841,37.13841 0 0 1 -17.48363,3.94258a56.09908,56.09908 0 0 1 -18.44553,-4.37291a136.71118,136.71118 0 0 1 -36.571,-22.09675a143.4121,143.4121 0 0 1 -31.576,-37.09093c-0.51542,-0.87129 0.9312,-1.50194 1.44325,-0.63634l0.00005,-0.00001z"/>
  <path id="svg_3" fill="#fff" d="m296.21267,563.31669a21.14146,21.14146 0 0 1 -25.97992,8.63067c-0.93968,-0.38289 -0.38883,-1.86108 0.55209,-1.47768a19.57654,19.57654 0 0 0 24.15033,-8.07777c0.52268,-0.86983 1.79718,0.05988 1.27749,0.92473l0.00001,0.00005z"/>
  <path id="svg_4" fill="#fff" d="m338.99417,569.92491a40.74844,40.74844 0 0 0 -16.85577,-24.449c-0.842,-0.56795 0.08373,-1.84475 0.92473,-1.27749a42.38455,42.38455 0 0 1 17.48825,25.477c0.22956,0.99052 -1.3289,1.23458 -1.55721,0.24943l0,0.00006z"/>
  <path id="svg_5" fill="#fff" d="m259.64217,535.52219a11.96709,11.96709 0 0 0 2.88562,-10.9826c-0.242,-0.98712 1.31678,-1.23013 1.55721,-0.24943a13.41012,13.41012 0 0 1 -3.16534,12.15676a0.815,0.815 0 0 1 -1.10111,0.17638a0.79252,0.79252 0 0 1 -0.17638,-1.10111z"/>
  <path id="svg_6" fill="#f0f0f0" d="m331.16817,430.15535c0.16864,0.61208 0.33728,1.22416 0.51842,1.84089a157.59919,157.59919 0 0 0 8.89147,23.969c0.26945,0.60251 0.55159,1.20906 0.8378,1.80258a166.14551,166.14551 0 0 0 36.14743,49.3468a161.34872,161.34872 0 0 0 19.11658,15.3477c9.3254,6.385 19.94453,12.566 26.42525,21.39875a27.68076,27.68076 0 0 1 1.884,2.86126l-17.6663,55.59885c-0.10355,0.1062 -0.19469,0.217 -0.29845,0.32387l-0.60385,2.25214c-0.3649,-0.21414 -0.73875,-0.44409 -1.10364,-0.65823c-0.21219,-0.12333 -0.42044,-0.25906 -0.63262,-0.3824c-0.14021,-0.08615 -0.2803,-0.17294 -0.41175,-0.24267c-0.04677,-0.0285 -0.09335,-0.05762 -0.12751,-0.08211c-0.13145,-0.06973 -0.24614,-0.14845 -0.36489,-0.21414q-3.13992,-1.91931 -6.26378,-3.88945c-0.0127,-0.004 -0.0127,-0.004 -0.02146,-0.02045c-15.84265,-10.04813 -30.98562,-21.50714 -43.90794,-34.90027c-0.38865,-0.40308 -0.79019,-0.80958 -1.17077,-1.23805a153.961,153.961 0 0 1 -15.80383,-19.53227a136.10794,136.10794 0 0 1 -7.13677,-11.77847a113.18414,113.18414 0 0 1 -11.64294,-33.41843c-4.19237,-23.28665 -0.89058,-47.65488 12.31235,-66.92266c0.33808,-0.49268 0.67237,-0.97361 1.0232,-1.46224z"/>
  <path id="svg_7" fill="#fff" d="m331.83409,430.50456a140.91324,140.91324 0 0 0 17.31813,84.95094a60.682,60.682 0 0 0 11.55714,15.097a34.80388,34.80388 0 0 0 16.40057,8.15713c5.6624,1.23856 11.59785,1.84976 16.86057,4.4432a21.31052,21.31052 0 0 1 10.91567,13.58647c2.08024,7.19161 1.45236,14.7018 0.58312,22.0248c-0.96513,8.13079 -2.09642,16.56085 0.65824,24.478c0.33376,0.95928 -1.17423,1.42107 -1.50749,0.46325c-4.79262,-13.77454 1.69353,-28.13182 -0.31789,-42.17385c-0.93857,-6.55227 -3.85743,-12.8614 -9.76684,-16.28837c-5.16753,-2.99674 -11.28768,-3.63224 -17.03182,-4.83677a37.13845,37.13845 0 0 1 -16.3334,-7.37842a56.099,56.099 0 0 1 -12.09493,-14.597a136.71108,136.71108 0 0 1 -15.89612,-39.66128a143.41213,143.41213 0 0 1 -2.88038,-48.626c0.113,-1.006 1.64778,-0.63857 1.53548,0.36085l-0.00005,0.00005z"/>
  <path id="svg_8" fill="#fff" d="m343.9761,507.42606a21.14147,21.14147 0 0 1 -25.93977,-8.75061c-0.51976,-0.87146 0.81,-1.72007 1.33048,-0.84745a19.57654,19.57654 0 0 0 24.146,8.09057c0.941,-0.37982 1.39889,1.12983 0.46325,1.50749l0.00004,0z"/>
  <path id="svg_9" fill="#fff" d="m374.15617,538.4598a40.74849,40.74849 0 0 0 1.26158,-29.66949c-0.33036,-0.96042 1.17753,-1.42251 1.50748,-0.46325a42.38456,42.38456 0 0 1 -1.37554,30.87112c-0.41308,0.92909 -1.80435,0.18566 -1.39352,-0.73838z"/>
  <path id="svg_10" fill="#fff" d="m331.5108,463.21572a11.96709,11.96709 0 0 0 8.91629,-7.03165c0.40109,-0.93386 1.792,-0.18939 1.39352,0.73839a13.41011,13.41011 0 0 1 -9.84656,7.80075a0.815,0.815 0 0 1 -0.98537,-0.52212a0.79252,0.79252 0 0 1 0.52212,-0.98537z"/>
  <path id="svg_13" fill="#fff" d="m735.14642,527.36708a13.66361,13.66361 0 0 0 17.66652,-0.967c0.47428,-0.4529 -0.20722,-1.21118 -0.68213,-0.75767a12.65223,12.65223 0 0 1 -16.43539,0.86589c-0.5204,-0.39916 -1.06643,0.46188 -0.549,0.85875l0,0.00003z"/>
  <path id="svg_14" fill="#fff" d="m710.9885,541.47843a26.33556,26.33556 0 0 1 4.34145,-18.6951c0.3717,-0.541 -0.4875,-1.08937 -0.85876,-0.549a27.393,27.393 0 0 0 -4.47812,19.46313c0.09669,0.65 1.0916,0.42742 0.99543,-0.219l0,-0.00003z"/>
  <path id="svg_15" fill="#fff" d="m750.54924,501.98858a7.73425,7.73425 0 0 1 -4.33762,-5.91985c-0.08841,-0.65089 -1.08326,-0.42763 -0.99543,0.219a8.66688,8.66688 0 0 0 4.78405,6.55958a0.52675,0.52675 0 0 0 0.70388,-0.15488a0.51221,0.51221 0 0 0 -0.15488,-0.70388l0,0.00003z"/>
  <path id="svg_21" fill="#f0f0f0" d="m5.04396,180.16848c0.96959,-35.76912 19.498,-72.7154 52.08982,-87.48409a164.86271,164.86271 0 0 0 10.92805,112.66052c6.53737,13.50809 15.215,27.85166 11.71171,42.444c-2.17966,9.07972 -8.94367,16.52047 -16.82536,21.527c-7.88221,5.00657 -16.88776,7.90154 -25.78206,10.74526l-1.64458,1.652c-17.57805,-31.16701 -31.44716,-65.77557 -30.47758,-101.54469z"/>
  <path id="svg_22" fill="#fff" d="m57.53304,93.32025a140.91315,140.91315 0 0 0 -27.21637,82.31554a60.68211,60.68211 0 0 0 2.52009,18.84509a34.8038,34.8038 0 0 0 10.17314,15.23234c4.29687,3.89022 9.1426,7.37188 12.419,12.23886a21.31049,21.31049 0 0 1 2.71465,17.21547c-1.77118,7.2739 -6.05036,13.47759 -10.44588,19.39885c-4.88037,6.57443 -10.05372,13.32589 -11.60056,21.56465c-0.18743,0.99824 -1.7254,0.64905 -1.53826,-0.34768c2.69125,-14.334 15.45782,-23.5653 20.69508,-36.74845c2.4438,-6.1515 3.04857,-13.07675 -0.37443,-18.98847c-2.99327,-5.16954 -7.98715,-8.76414 -12.37187,-12.66546a37.13848,37.13848 0 0 1 -10.50208,-14.52334a56.0991,56.0991 0 0 1 -3.23532,-18.67866a136.71109,136.71109 0 0 1 5.92994,-42.31478a143.41208,143.41208 0 0 1 21.68015,-43.62056c0.5983,-0.81659 1.74715,0.26534 1.15276,1.0766l-0.00004,0z"/>
  <path id="svg_23" fill="#fff" d="m29.81845,166.09556a21.14148,21.14148 0 0 1 -18.15434,-20.49065c-0.0176,-1.01453 1.55811,-1.08955 1.57574,-0.07367a19.57653,19.57653 0 0 0 16.92628,19.026c1.00531,0.13839 0.65188,1.67585 -0.34768,1.53826l0,0.00006z"/>
  <path id="svg_24" fill="#fff" d="m40.57143,208.02767a40.74842,40.74842 0 0 0 15.84767,-25.11416c0.191,-0.99754 1.729,-0.64867 1.53826,0.34767a42.38456,42.38456 0 0 1 -16.54406,26.10005c-0.82037,0.60069 -1.65779,-0.73613 -0.84187,-1.33356z"/>
  <path id="svg_25" fill="#fff" d="m40.98698,121.53996a11.9671,11.9671 0 0 0 11.23232,-1.6671c0.81235,-0.61079 1.64893,0.72674 0.84186,1.33355a13.41011,13.41011 0 0 1 -12.42186,1.87181a0.815,0.815 0 0 1 -0.59529,-0.943a0.79252,0.79252 0 0 1 0.943,-0.59529l-0.00003,0.00003z"/>
  <path id="svg_26" fill="#f0f0f0" d="m165.99505,145.85291c-0.49641,0.39581 -0.99281,0.79162 -1.48857,1.20075a157.59907,157.59907 0 0 0 -18.53917,17.60309c-0.448,0.48473 -0.89462,0.98272 -1.32772,1.47932a166.14545,166.14545 0 0 0 -31.1498,52.6444a161.348,161.348 0 0 0 -6.59078,23.61264c-2.202,11.08523 -3.70762,23.27965 -9.2791,32.71238a27.68156,27.68156 0 0 1 -1.8895,2.85763l-58.06594,5.62815c-0.13838,-0.05343 -0.27613,-0.09362 -0.41516,-0.147l-2.30812,0.33072c0.05334,-0.41971 0.11769,-0.85388 0.171,-1.27359c0.02993,-0.24359 0.0728,-0.48844 0.10273,-0.732c0.02406,-0.16279 0.04875,-0.32573 0.06114,-0.474c0.00781,-0.05422 0.01626,-0.1085 0.02534,-0.14953c0.0124,-0.14828 0.03966,-0.2847 0.05334,-0.41971c0.353,-2.42785 0.7189,-4.857 1.112,-7.28877c-0.00128,-0.01326 -0.00128,-0.01326 0.01037,-0.02778c3.00625,-18.518 7.58488,-36.94774 14.81522,-54.09662c0.21771,-0.51588 0.43348,-1.045 0.67771,-1.5634a153.96371,153.96371 0 0 1 11.7411,-22.213a136.11109,136.11109 0 0 1 8.02164,-11.1946a113.18445,113.18445 0 0 1 26.14456,-23.84977c19.7603,-13.0144 43.46287,-19.56425 66.37087,-15.00482c0.58596,0.11706 1.15961,0.23522 1.74684,0.36551z"/>
  <path id="svg_27" fill="#fff" d="m165.93594,146.60257a140.91307,140.91307 0 0 0 -71.29039,49.33822a60.6822,60.6822 0 0 0 -9.3339,16.564a34.80392,34.80392 0 0 0 -1.04823,18.28711c1.08863,5.69313 2.86147,11.39051 2.54723,17.24913a21.3105,21.3105 0 0 1 -8.19741,15.38c-5.79358,4.74142 -12.94531,7.11836 -20.01989,9.19975c-7.855,2.311 -16.05044,4.58694 -22.24581,10.23382c-0.75066,0.6842 -1.76841,-0.52057 -1.01889,-1.20374c10.77889,-9.8246 26.53014,-9.50889 38.649,-16.88171c5.65486,-3.4403 10.30722,-8.6056 11.1334,-15.38666c0.72247,-5.92974 -1.10067,-11.80649 -2.25276,-17.56138a37.13841,37.13841 0 0 1 0.35873,-17.919a56.09921,56.09921 0 0 1 8.66263,-16.86176a136.71082,136.71082 0 0 1 30.21112,-30.21576a143.412,143.412 0 0 1 43.573,-21.77563c0.96936,-0.29178 1.23526,1.26377 0.27223,1.55365l-0.00006,-0.00004z"/>
  <path id="svg_28" fill="#fff" d="m99.99163,188.02348a21.14146,21.14146 0 0 1 -2.15846,-27.29076c0.59676,-0.82066 1.9,0.06813 1.30249,0.88987a19.57653,19.57653 0 0 0 2.05971,25.382c0.71936,0.71575 -0.48849,1.73055 -1.20374,1.01888l0,0.00001z"/>
  <path id="svg_29" fill="#fff" d="m83.33126,227.97797a40.74847,40.74847 0 0 0 27.77391,-10.51087c0.753,-0.68152 1.771,0.523 1.01889,1.20374a42.38453,42.38453 0 0 1 -28.92353,10.87876c-1.01668,-0.01431 -0.88045,-1.58586 0.13071,-1.57163l0.00002,0z"/>
  <path id="svg_30" fill="#fff" d="m135.73462,159.17256a11.96711,11.96711 0 0 0 9.97209,5.43154c1.01635,0.00141 0.879,1.573 -0.13071,1.57163a13.4101,13.4101 0 0 1 -11.04512,-5.98429a0.815,0.815 0 0 1 0.09243,-1.11131a0.7925,0.7925 0 0 1 1.11131,0.09243z"/>
  <path id="svg_31" fill="#fff" d="m578.46059,611.7655l-166.00781,0a35.03577,35.03577 0 0 1 -34.99609,-34.99609l0,-256.00781a35.03577,35.03577 0 0 1 34.99609,-34.9961l166.00781,0a35.03578,35.03578 0 0 1 34.9961,34.9961l0,256.00781a35.03578,35.03578 0 0 1 -34.9961,34.99609z"/>
  <path id="svg_32" fill="#B07930" d="m560.46059,586.34265l-130.00781,0a34.53528,34.53528 0 0 1 -34.49609,-34.49609l0,-206.16165a34.53528,34.53528 0 0 1 34.49609,-34.4961l130.00781,0a34.53529,34.53529 0 0 1 34.4961,34.4961l0,206.16165a34.53529,34.53529 0 0 1 -34.4961,34.49609z"/>
  <rect id="svg_33" fill="#3f3d56" height="54" width="234" y="511.30895" x="378.9291"/>
  <path id="svg_34" fill="#fff" d="m47.17324,381.68457l-39.62386,-50.94474a31.728,31.728 0 0 1 5.56571,-44.52646l160.49068,-124.82666a60.5949,60.5949 0 0 1 32.60182,-12.61793l13.536,-1.04807l116.55351,-68.26853a9.996,9.996 0 0 1 16.97833,-10.30179l33.15288,42.62495a9.997,9.997 0 0 1 -14.218,13.87861l-95.34249,95.34248a60.34767,60.34767 0 0 1 -22.94074,40.0764l-162.22737,126.17745a31.72818,31.72818 0 0 1 -44.52647,-5.56571z"/>
  <path id="svg_35" fill="#3f3d56" d="m578.46059,611.7655l-166.00781,0a35.03577,35.03577 0 0 1 -34.99609,-34.99609l0,-256.00781a35.03577,35.03577 0 0 1 34.99609,-34.9961l166.00781,0a35.03578,35.03578 0 0 1 34.9961,34.9961l0,256.00781a35.03578,35.03578 0 0 1 -34.9961,34.99609zm-166.00781,-324a33.03333,33.03333 0 0 0 -32.99609,32.9961l0,256.00781a33.03333,33.03333 0 0 0 32.99609,32.99609l166.00781,0a33.03333,33.03333 0 0 0 32.9961,-32.99609l0,-256.00781a33.03334,33.03334 0 0 0 -32.9961,-32.9961l-166.00781,0z"/>
  <path id="svg_36" fill="#B07930" d="m382.70354,74.80011a60.14854,60.14854 0 0 1 55.51,5.23249c16.74918,10.75321 29.22812,30.12631 33.39641,51.84669c2.04279,10.64465 2.78168,23.02582 10.22822,29.65246c5.454,4.85347 12.88044,4.97993 19.44423,7.32643c19.4113,6.93936 29.42921,33.87724 26.60218,57.27111s-15.41425,43.54143 -28.92345,61.17967c4.29544,-9.478 -1.28153,-21.77024 -9.43928,-26.74412s-17.87974,-4.5558 -27.06281,-3.73282s-18.75314,1.86606 -27.31634,-2.07914c-14.63242,-6.74138 -22.03956,-26.2758 -23.14457,-44.53922s2.54651,-36.46417 2.80834,-54.77025s-3.80279,-38.35988 -16.4469,-49.2614c-5.81489,-5.01349 -13.01028,-7.68789 -18.41929,-13.28257s-8.31225,-16.21469 -3.25818,-22.24181"/>
  <path id="svg_37" fill="#f0f0f0" d="m585.9291,277.30896c-0.52344,0 -1.04248,0.01861 -1.5586,0.048a27.00656,27.00656 0 0 0 -37.03027,-33.43835c-4.32764,-12.18189 -13.62988,-20.60968 -24.41113,-20.60968s-20.0835,8.42779 -24.41114,20.60968a27.03631,27.03631 0 0 0 -23.17773,0c-4.32764,-12.18189 -13.62988,-20.60968 -24.41113,-20.60968s-20.0835,8.42779 -24.41114,20.60968a27.00641,27.00641 0 0 0 -37.02441,33.45489c-0.51807,-0.03949 -1.03906,-0.06457 -1.56445,-0.06457c-14.91162,0 -27,16.11774 -27,36s12.08838,36 27,36c12.28125,0 22.64013,-10.93683 25.91553,-25.90131a27.01184,27.01184 0 0 0 30.67333,5.29163c4.32764,12.18188 13.62989,20.60968 24.41114,20.60968c12.28125,0 22.64013,-10.93683 25.91553,-25.90131a27.01184,27.01184 0 0 0 30.67333,5.29163c4.32764,12.18188 13.62989,20.60968 24.41114,20.60968s20.08349,-8.4278 24.41113,-20.60968a27.00151,27.00151 0 1 0 11.58887,-51.39032l0,0.00003z"/>
  <circle id="svg_38" fill="#fff" r="5" cy="349.30895" cx="441.9291"/>
  <circle id="svg_39" fill="#fff" r="5" cy="434.30895" cx="472.9291"/>
  <circle id="svg_40" fill="#fff" r="5" cy="376.30895" cx="504.9291"/>
  <circle id="svg_41" fill="#fff" r="5" cy="394.30895" cx="468.9291"/>
  <circle id="svg_42" fill="#fff" r="5" cy="448.30895" cx="531.9291"/>
  <circle id="svg_43" fill="#fff" r="5" cy="349.30895" cx="549.9291"/>
  <path id="svg_44" fill="#3f3d56" d="m612.45669,530.30896l0,-2a93.27173,93.27173 0 0 0 0,-186.54346l0,-2a95.27173,95.27173 0 0 1 0,190.54346z"/>
  <path id="svg_45" fill="#3f3d56" d="m612.9291,512.30896l-1,0l0,-2.52149l2,0l0,0.51465a71.47249,71.47249 0 0 0 -1,-142.938l0,-2a73.47241,73.47241 0 0 1 0,146.94483l0,0.00001z"/>
  <path id="svg_46" fill="#B07930" d="m55.54387,369.44131l-34.06728,-43.80059a26.91882,26.91882 0 0 1 4.72231,-37.77773l137.98454,-107.3218a51.74108,51.74108 0 0 1 27.83715,-10.774l11.7203,-0.90751l108.03483,-63.27886l29.04392,37.342l-88.41667,88.417a51.52947,51.52947 0 0 1 -19.60365,34.34031l-139.47768,108.48314a26.91863,26.91863 0 0 1 -37.77777,-4.722l0,0.00004z"/>
  <path id="svg_47" fill="#f0f0f0" d="m376.75872,112.98598c3.31571,0.93034 7.5724,-0.00321 11.14086,-2.77869c5.23137,-4.06887 6.99845,-10.54784 3.94672,-14.47146a6.94635,6.94635 0 0 0 -2.02791,-1.75443a8.04153,8.04153 0 0 0 -1.12951,-7.19156a6.871,6.871 0 0 0 -1.37916,-1.3299c3.4408,-4.76269 4.731,-9.02 2.95783,-11.29974a5.04308,5.04308 0 0 0 -4.08493,-1.62119a7.55367,7.55367 0 0 0 -1.44055,-5.483c-2.57688,-3.31311 -7.76414,-3.733 -12.46644,-1.33693c-0.05638,-0.07925 -0.10294,-0.16427 -0.1632,-0.24174c-3.05172,-3.92363 -9.76631,-3.80572 -14.99769,0.26315a13.93994,13.93994 0 0 0 -5.22486,7.94171a13.93992,13.93992 0 0 0 -8.98345,3.10925c-5.23138,4.06887 -6.99846,10.54784 -3.94673,14.47147c0.1349,0.17344 0.28506,0.32882 0.43384,0.48652l-0.062,0.06431c-0.118,-0.18659 -0.23424,-0.37392 -0.37183,-0.55083c-3.05173,-3.92363 -9.76632,-3.80572 -14.9977,0.26315a13.93987,13.93987 0 0 0 -5.22485,7.94171a13.93993,13.93993 0 0 0 -8.98346,3.10925c-5.23138,4.06887 -6.99845,10.54784 -3.94673,14.47147s9.76632,3.80571 14.99769,-0.26315a8.98706,8.98706 0 0 0 1.66848,15.2278c-1.10511,2.66024 -1.21419,4.90209 -0.08973,6.34782c1.77318,2.27979 6.217,2.0772 11.68014,-0.0854a6.87074,6.87074 0 0 0 0.9495,1.66408c3.05173,3.92362 9.76632,3.80571 14.99769,-0.26315a13.94232,13.94232 0 0 0 5.22516,-7.94133a13.94236,13.94236 0 0 0 8.98316,-3.10964a15.49376,15.49376 0 0 0 3.14678,-3.28383a15.494,15.494 0 0 0 3.95738,-2.24165c3.56845,-2.77545 5.52105,-6.67138 5.4355,-10.11407z"/>
  <path id="svg_48" fill="#3f3d56" d="m47.17324,381.68457l-39.62386,-50.94474a31.728,31.728 0 0 1 5.56571,-44.52646l160.49068,-124.82666a60.5949,60.5949 0 0 1 32.60182,-12.61793l13.536,-1.04807l116.55351,-68.26853a9.996,9.996 0 0 1 16.97833,-10.30179l33.15288,42.62495a9.997,9.997 0 0 1 -14.218,13.87861l-95.34249,95.34248a60.34767,60.34767 0 0 1 -22.94074,40.0764l-162.22737,126.17745a31.72818,31.72818 0 0 1 -44.52647,-5.56571zm304.52349,-311.3063a7.99552,7.99552 0 0 0 -13.21121,8.94966l0.50692,0.86331l-118.635,69.48775l-13.99516,1.08368a58.60218,58.60218 0 0 0 -31.52859,12.20275l-160.49072,124.82665a29.72788,29.72788 0 0 0 -5.21489,41.71988l39.62387,50.94474a29.72768,29.72768 0 0 0 41.71988,5.21489l162.2274,-126.17745a58.36536,58.36536 0 0 0 22.22785,-39.08737l0.04257,-0.34055l97.20674,-97.20691l0.707,0.7086a7.99653,7.99653 0 0 0 11.96621,-10.56468l-33.15287,-42.62495z"/>
  <path id="svg_50" fill="#3f3d56" d="m82.83504,234.52038l76.12892,97.8796l55.25456,-42.976l-76.12892,-97.8796l-55.25456,42.976z"/>
  <circle id="svg_51" fill="#fff" r="5" cy="140.46597" cx="305.01766"/>
  <circle id="svg_52" fill="#fff" r="5" cy="148.35958" cx="265.55007"/>
  <circle id="svg_53" fill="#fff" r="5" cy="180.72302" cx="267.9182"/>
  <circle id="svg_54" fill="#fff" r="5" cy="188.61663" cx="228.4506"/>
  <circle id="svg_55" fill="#fff" r="5" cy="129.30895" cx="433.9291"/>
  <circle id="svg_56" fill="#fff" r="5" cy="156.30895" cx="451.9291"/>
  <circle id="svg_57" fill="#fff" r="5" cy="201.30895" cx="451.9291"/>
  <polygon id="svg_58" fill="#f2f2f2" points="380.72258257865906,236.08805936574936 380.72258257865906,236.08805936574936 380.72258257865906,236.08805936574936 380.72258257865906,236.08805936574936 "/>
  <path id="svg_59" fill="#f2f2f2" d="m379.02288,236.1186c-5.53171,0.17315 -23.24738,1.33352 -32.45121,9.064c-10.99524,9.23529 -10.99569,18.0055 -5.66758,24.34912s13.96639,7.85835 24.96212,-1.3769c9.32062,-7.82832 13.513,-25.42051 14.57462,-30.60051l-1.41795,-1.43571z"/>
  <polygon id="svg_60" fill="#f2f2f2" points="520.1325557231903,123.59105008840561 520.1325557231903,123.59105008840561 520.1325557231903,123.59105008840561 520.1325557231903,123.59105008840561 "/>
  <path id="svg_61" fill="#f2f2f2" d="m521.19587,124.91732c3.51955,4.27112 15.27056,17.57921 27.01531,20.13477c14.0309,3.05282 20.97066,-2.30967 22.732,-10.40459s-2.32226,-15.85626 -16.35343,-18.90949c-11.89362,-2.58812 -28.37715,4.852 -33.125,7.17946l-0.26888,1.99985z"/>
  <polygon id="svg_62" fill="#f2f2f2" points="610.9755733013153,254.22906583547592 610.9755733013153,254.22906583547592 610.9755733013153,254.22906583547592 610.9755733013153,254.22906583547592 "/>
  <path id="svg_63" fill="#f2f2f2" d="m611.15317,255.92019c0.65015,5.49609 3.33589,23.0454 11.83217,31.54735c10.15021,10.15674 18.8877,9.3999 24.74756,3.54394s6.623,-14.59278 -3.52717,-24.75c-8.60389,-8.60986 -26.49238,-11.26757 -31.7447,-11.87792l-1.30786,1.53663z"/>
 </g>
</svg>